<?xml version="1.0" encoding="UTF-8"?>
<svg id="_레이어_1" data-name="레이어_1" xmlns="http://www.w3.org/2000/svg" xmlns:xlink="http://www.w3.org/1999/xlink" version="1.1" viewBox="0 0 298 53">
  <!-- Generator: Adobe Illustrator 29.8.2, SVG Export Plug-In . SVG Version: 2.1.1 Build 3)  -->
  <defs>
    <style>
      .st0 {
        fill: none;
      }

      .st1 {
        fill: #844755;
      }

      .st2 {
        fill: #866ebd;
      }

      .st3 {
        fill: #6a5596;
      }

      .st4 {
        fill: #ef3f52;
      }

      .st5 {
        fill: #66c76b;
      }

      .st6 {
        fill: #fff;
      }

      .st7 {
        fill: #40964c;
      }

      .st8 {
        fill: #f9b12a;
      }

      .st9 {
        fill: #475965;
      }

      .st10 {
        fill: #d2441f;
      }

      .st11 {
        fill: #df7a10;
      }

      .st12 {
        fill: #c72840;
      }

      .st13 {
        clip-path: url(#clippath);
      }

      .st14 {
        fill: #648249;
      }
    </style>
    <clipPath id="clippath">
      <rect class="st0" y=".44" width="297.17" height="52"/>
    </clipPath>
  </defs>
  <g class="st13">
    <g>
      <path class="st6" d="M254.39,42.62v-1.9l4.93-4.76c.92-.87,1.39-1.72,1.39-2.56,0-.53-.18-.97-.55-1.32-.37-.35-.85-.52-1.45-.52-1.12,0-1.99.64-2.61,1.91l-1.94-1.29c.19-.4.42-.78.7-1.12.27-.34.59-.65.97-.94.38-.29.82-.51,1.33-.67.51-.16,1.07-.24,1.67-.24,1.32,0,2.38.4,3.19,1.19.81.8,1.21,1.77,1.21,2.93,0,.7-.16,1.36-.5,2-.34.63-.89,1.3-1.64,2.02l-3.28,3.05h5.5v2.21h-8.92Z"/>
      <path class="st6" d="M270.36,42.91c-.98,0-1.88-.29-2.67-.89-.79-.59-1.41-1.41-1.86-2.45-.45-1.04-.67-2.21-.67-3.5s.22-2.47.65-3.52c.43-1.05,1.05-1.87,1.82-2.45.78-.59,1.65-.89,2.62-.89s1.89.29,2.69.89c.8.59,1.42,1.41,1.86,2.45.44,1.04.66,2.21.64,3.5.01,1.3-.2,2.47-.64,3.52-.43,1.05-1.05,1.87-1.82,2.45-.78.59-1.66.89-2.64.89h0ZM270.33,40.55c.79,0,1.42-.42,1.91-1.24.49-.83.73-1.9.73-3.23s-.25-2.43-.75-3.26c-.49-.83-1.15-1.25-1.96-1.25s-1.4.42-1.88,1.25c-.48.83-.72,1.91-.72,3.23s.24,2.42.73,3.25c.49.83,1.13,1.24,1.93,1.24h0Z"/>
      <path class="st6" d="M277.01,42.62v-1.9l4.94-4.76c.92-.87,1.39-1.72,1.39-2.56,0-.53-.18-.97-.55-1.32-.37-.35-.85-.52-1.45-.52-1.12,0-1.99.64-2.61,1.91l-1.94-1.29c.2-.4.42-.78.7-1.12.27-.34.59-.65.97-.94.37-.29.82-.51,1.33-.67.51-.16,1.07-.24,1.67-.24,1.31,0,2.38.4,3.18,1.19.81.8,1.21,1.77,1.21,2.93,0,.7-.17,1.36-.5,2-.34.63-.89,1.3-1.64,2.02l-3.28,3.05h5.5v2.21h-8.92Z"/>
      <path class="st6" d="M291.78,40.55c.74,0,1.33-.2,1.76-.6.43-.4.64-.92.64-1.55s-.21-1.16-.62-1.57c-.42-.42-1-.62-1.76-.62-.89,0-1.73.24-2.52.72l-1.14-.8,1.06-6.63h6.73v2.21h-4.71l-.45,2.67c.42-.2.93-.29,1.53-.29,1.35,0,2.42.4,3.2,1.22.79.81,1.19,1.86,1.19,3.14s-.44,2.38-1.32,3.21c-.88.84-2.07,1.25-3.55,1.25-1.01,0-1.89-.2-2.65-.59-.75-.4-1.36-.94-1.83-1.64l1.82-1.63c.7,1,1.57,1.51,2.62,1.51h0Z"/>
      <path class="st6" d="M194.77,11.89l-.75.91c-1.05-.81-2.22-1.22-3.53-1.22-.92,0-1.76.24-2.53.71-.78.47-1.39,1.12-1.84,1.93-.45.81-.68,1.7-.68,2.66s.23,1.83.68,2.63c.45.8,1.08,1.43,1.88,1.9.79.47,1.68.7,2.64.7,1.36,0,2.5-.39,3.41-1.16l.72.83c-.57.51-1.21.87-1.89,1.11-.68.23-1.46.34-2.34.34s-1.7-.17-2.48-.5c-.78-.34-1.45-.79-2.01-1.35-.56-.57-1-1.24-1.33-2.02-.32-.78-.49-1.61-.49-2.47s.17-1.7.5-2.49c.33-.79.77-1.47,1.33-2.04.56-.57,1.22-1.03,1.99-1.36.77-.34,1.58-.51,2.43-.51.91,0,1.71.12,2.39.35.68.23,1.31.59,1.88,1.07h0Z"/>
      <path class="st6" d="M197.43,10.68h7.58v1.08h-6.43v4.54h6v1.08h-6v4.56h6.54v1.08h-7.7v-12.35Z"/>
      <path class="st6" d="M213.35,10.47c.85,0,1.66.17,2.43.51.77.34,1.44.79,1.99,1.37.56.57,1,1.25,1.33,2.04.33.79.5,1.62.5,2.49s-.17,1.68-.5,2.47c-.33.79-.77,1.46-1.33,2.03-.56.57-1.22,1.02-1.99,1.35-.77.34-1.58.5-2.43.5-1.13,0-2.17-.28-3.13-.85-.96-.57-1.72-1.34-2.27-2.31-.56-.97-.84-2.04-.84-3.19,0-.87.17-1.7.5-2.49.33-.79.77-1.47,1.33-2.04.56-.57,1.22-1.03,1.99-1.36.77-.34,1.58-.51,2.43-.51h0ZM211.4,21.71c.62.28,1.27.42,1.96.42s1.34-.13,1.96-.42c.62-.28,1.17-.65,1.62-1.12.45-.47.81-1.03,1.08-1.68.27-.65.4-1.32.4-2.03,0-.96-.23-1.85-.68-2.66-.45-.81-1.06-1.46-1.84-1.93-.78-.47-1.63-.71-2.54-.71-.69,0-1.33.14-1.96.42-.62.28-1.16.65-1.61,1.13-.45.48-.81,1.04-1.08,1.7-.27.65-.4,1.34-.4,2.05s.13,1.39.4,2.03c.27.65.62,1.2,1.08,1.68.45.47.99.84,1.61,1.12h0Z"/>
      <path class="st6" d="M235.52,12.24l-.83.79c-.3-.42-.75-.77-1.33-1.06-.59-.29-1.22-.43-1.9-.43-.87,0-1.58.19-2.12.56s-.8.87-.8,1.48c0,.34.08.64.25.9.17.26.39.48.67.65.28.17.6.33.97.47.37.14.75.28,1.15.4.4.12.8.26,1.21.39.4.13.79.3,1.15.49.36.19.68.41.97.65.28.24.5.55.67.92.16.37.25.79.25,1.27,0,1.06-.39,1.91-1.17,2.56-.78.64-1.84.95-3.18.95-1.01,0-1.91-.18-2.68-.55-.77-.37-1.39-.86-1.85-1.48l.84-.76c.45.55.98.97,1.61,1.27.63.29,1.33.44,2.09.44.98,0,1.74-.21,2.31-.63.56-.42.84-.98.84-1.68,0-.48-.13-.89-.4-1.23-.27-.34-.61-.62-1.04-.82-.43-.2-.9-.39-1.41-.55-.51-.17-1.03-.34-1.54-.52-.51-.18-.99-.39-1.41-.63-.43-.24-.77-.57-1.04-.98-.27-.42-.4-.91-.4-1.48,0-.95.38-1.71,1.14-2.29.76-.58,1.76-.87,3-.87.88,0,1.68.17,2.4.5.72.34,1.27.76,1.62,1.27h-.01Z"/>
      <path class="st6" d="M238.64,18.4v-7.72h1.13v7.75c0,1.11.32,2.01.97,2.68.65.68,1.49,1.02,2.54,1.02s1.89-.34,2.53-1c.64-.67.96-1.56.96-2.67v-7.77h1.15v7.72c0,1.46-.43,2.62-1.28,3.51-.85.89-1.98,1.33-3.39,1.33s-2.51-.45-3.35-1.33c-.84-.89-1.27-2.05-1.27-3.51Z"/>
      <path class="st6" d="M257.88,20.52l-5-7.94v10.44h-1.15v-12.35h1.33l4.91,7.9,4.9-7.9h1.17v12.35h-1.16v-10.44l-5,7.94Z"/>
      <path class="st6" d="M274.15,20.52l-5-7.94v10.44h-1.16v-12.35h1.33l4.91,7.9,4.9-7.9h1.17v12.35h-1.16v-10.44l-5,7.94Z"/>
      <path class="st6" d="M284.26,23.02v-12.35h1.16v12.35h-1.16Z"/>
      <path class="st6" d="M297.17,11.76h-4.14v11.26h-1.16v-11.26h-4.12v-1.08h9.41v1.08Z"/>
      <path class="st6" d="M186,42.62v-13.12h2.56v5.41h1.25l3.7-5.41h2.89l-4.41,6.45,4.73,6.67h-3.11l-3.69-5.31h-1.35v5.31h-2.56Z"/>
      <path class="st6" d="M203.31,29.22c.92,0,1.8.18,2.64.54.84.36,1.56.85,2.16,1.46s1.09,1.34,1.45,2.19c.36.84.54,1.73.54,2.66s-.18,1.81-.54,2.65c-.36.84-.84,1.57-1.45,2.18-.6.61-1.33,1.09-2.16,1.46-.84.36-1.72.54-2.64.54s-1.8-.18-2.64-.54c-.84-.36-1.56-.85-2.16-1.46-.61-.61-1.09-1.33-1.44-2.18-.35-.84-.53-1.72-.53-2.65,0-1.24.3-2.38.9-3.44.6-1.05,1.42-1.88,2.47-2.5,1.04-.61,2.18-.92,3.4-.92ZM203.31,40.36c1.12,0,2.09-.42,2.88-1.25.79-.83,1.19-1.84,1.19-3.03s-.4-2.2-1.19-3.04c-.79-.84-1.76-1.26-2.88-1.26s-2.07.42-2.87,1.26-1.19,1.85-1.19,3.04.4,2.19,1.19,3.02c.79.84,1.75,1.25,2.86,1.25Z"/>
      <path class="st6" d="M212.58,42.62v-13.12h4.66c1.55,0,2.79.38,3.73,1.13.94.76,1.41,1.75,1.41,3,0,.89-.25,1.66-.73,2.31-.49.65-1.17,1.14-2.04,1.46l3.04,5.22h-2.97l-2.68-4.82h-1.88v4.82h-2.56ZM217.44,31.77h-2.3v3.77h2.3c.67,0,1.21-.17,1.62-.52.4-.35.61-.81.61-1.38s-.2-1.02-.61-1.36c-.41-.34-.95-.51-1.62-.51Z"/>
      <path class="st6" d="M225.12,42.62v-13.12h8.3v2.4h-5.74v2.9h5.4v2.41h-5.4v2.98h5.93v2.42h-8.49Z"/>
      <path class="st6" d="M245.23,42.62l-1.13-2.95h-5.74l-1.15,2.95h-2.68l5.28-13.12h2.98l5.28,13.12h-2.85,0ZM243.22,37.4l-2.01-5.2-2,5.2h4Z"/>
      <path class="st6" d="M110.13,11.26h-13.48v30.86h7.67v-9.1h5.8c6,0,10.86-4.87,10.86-10.88s-4.86-10.88-10.86-10.88h0ZM109.91,26.17h-5.58v-7.74h5.58c1.88,0,3.41,1.73,3.41,3.86s-1.53,3.86-3.41,3.86h0Z"/>
      <path class="st6" d="M74.18,11.26l-12.03,30.86h8.76l1.86-5.36h11.3l1.86,5.36h8.76l-12.03-30.86h-8.47ZM75.16,29.91l3.27-9.38,3.27,9.38h-6.53Z"/>
      <path class="st6" d="M132.24,30.04h12.05v-6.85h-12.05v-4.76h12.79v-7.17h-20.47v30.86h20.88v-7.18h-13.2v-4.9Z"/>
      <path class="st6" d="M170.68,32.39c-1.71,1.88-3.6,2.94-6.45,2.94-4.8,0-8.27-3.68-8.27-8.64s3.47-8.64,8.27-8.64c2.86,0,4.59.95,6.43,2.89l4.87-5.64c-2.61-3.09-6.59-4.75-11.31-4.75-9.15,0-16.14,6.98-16.14,16.14s6.98,16.14,16.14,16.14c4.85,0,8.53-1.63,11.36-5.04l-4.91-5.4h0Z"/>
      <path class="st5" d="M22.15,22.82c.12-.73.2-1.16.2-1.16,0,0-2.02-5.14-4.34-9.99-1.38-2.89-2.85-5.67-4.07-7.22-2.06-2.62-1.46-2.35-4.6-2.9-.67-.12-7.56.38-7.56.42.9,4.56,1.86,9.12,2.87,13.66l1.88,8.24c.67,2.83,1.35,5.64,2.06,8.46.43,1.69.88,3.4,1.32,5.08.29,1.11.61,2.28,1.39,3.13,1.66,1.81,4.57,1.45,6.98.94.69-.15,1.42-.32,1.89-.84.6-.68.54-1.7.47-2.6-.15-1.99.19-5.68.62-9.05.32-2.5.68-4.84.89-6.17h0Z"/>
      <path class="st2" d="M22.67,31.2c-2.11-.31-3.59-.55-3.59-.55,0,0-4.51,1.79-9.07,3.92-3.19,1.49-5.33,2.95-7.04,4.29-2.62,2.07-2.35,1.46-2.89,4.61-.12.67.21,7.1.25,7.09,5.88-1.17,10.67-2.23,16.52-3.57,2.54-.59,5.08-1.19,7.61-1.8,2.42-.59,4.84-1.19,7.25-1.81.98-.25,1.97-.5,2.95-.76,1.11-.29,2.28-.61,3.13-1.39,1.81-1.66,1.63-4.1,1.12-6.51-.15-.69-.32-1.42-.84-1.89-.68-.6-1.7-.54-2.6-.47-1.48.11-3.91-.06-6.44-.33-2.22-.24-4.52-.55-6.35-.81"/>
      <path class="st4" d="M33.27,39.68c1.61,3.5,3.49,7.24,4.98,9.12,2.07,2.62,1.46,2.35,4.61,2.89.67.12,7.56-.39,7.56-.43-1.05-5.23-2.16-10.45-3.34-15.65l-1.95-8.33c-.65-2.68-1.31-5.36-2-8.04-.29-1.13-.57-2.26-.87-3.38-.29-1.11-.61-2.28-1.39-3.13-1.66-1.81-4.57-1.45-6.98-.94-.69.15-1.42.32-1.89.84-.6.68-.54,1.7-.47,2.6.11,1.47-.06,3.87-.32,6.39-.23,2.16-.53,4.41-.79,6.22-.32,2.2-.58,3.77-.58,3.77,0,0,1.53,3.86,3.45,8.05h0Z"/>
      <path class="st8" d="M18.24,9.53c-.23.06-.45.12-.68.17-1.11.29-2.28.61-3.13,1.39-1.81,1.66-1.45,4.57-.94,6.98.15.69.32,1.42.84,1.89.68.6,1.7.54,2.6.47,1.29-.09,3.29.02,5.45.23,2.1.21,4.34.5,6.26.76,2.66.37,4.67.7,4.67.7,0,0,3.39-1.32,7.26-3.07,3.72-1.68,7.89-3.72,9.92-5.32,2.62-2.06,2.35-1.46,2.9-4.6.12-.67-.38-7.56-.42-7.56-5.85,1.16-11.67,2.4-17.49,3.73l-7.96,1.88c-3.1.75-6.21,1.54-9.3,2.34h.01Z"/>
      <path class="st5" d="M6.54,23.86c1.12-.37,2.29-1.41,2.53-4.69.14-1.84-1.51-3.31-4.01-3.52-.15-.01-.29-.02-.43-.03-2.28-.17-4.48.68-4.68,3.12-.21,2.58,1.14,4.62,3.61,5.03,1.08.18,2.09.39,2.97.1h0Z"/>
      <path class="st2" d="M24.46,45.18c-.73-.59-1.57-1.27-2.77-1.36-2.49-.2-4.61-.04-4.82,2.54-.02.21-.02.42-.02.63-.03,2.4.87,4.84,3.14,5.21,2.45.4,4.57.98,5.5-4.59.16-.94-.25-1.79-1.03-2.42h0Z"/>
      <path class="st8" d="M28.02,6.93c.5,1.09,1.32,1.92,2.56,2.12,2.35.39,4.41.95,5.4-4,.04-.19.07-.38.11-.59.31-1.82-1.11-3.77-3.6-3.98-2.49-.21-4.79.14-5.01,2.72-.1,1.28.05,2.64.54,3.72h0Z"/>
      <path class="st4" d="M45.29,28.25c-1.22.13-2.94,1.66-3.07,3.31-.21,2.58,1.54,4.46,4.01,4.86.34.06.68.12,1,.16,2.01.28,3.69.04,4.49-4.76.31-1.82-1.13-3.62-3.63-3.82-.91-.07-2.12.17-2.81.24h0Z"/>
      <path class="st1" d="M38.91,34.7c-.15-.69-.32-1.42-.84-1.89-.68-.6-1.7-.54-2.6-.47-1.28.09-3.28-.02-5.44-.23.47,1.17,1.74,4.26,3.25,7.56.45.98.92,1.97,1.39,2.94,1.11-.29,2.28-.61,3.12-1.39,1.81-1.66,1.63-4.1,1.12-6.51h0Z"/>
      <path class="st10" d="M40.86,12.74c-1.66-1.81-4.57-1.45-6.98-.94-.69.15-1.42.32-1.89.84-.6.68-.54,1.7-.47,2.6.11,1.47-.06,3.87-.32,6.39,0,.06-.01.12-.02.17,1.31.2,2.15.34,2.15.34,0,0,3.39-1.32,7.26-3.07.73-.33,1.48-.67,2.23-1.02-.19-.73-.37-1.46-.56-2.18-.29-1.11-.61-2.28-1.39-3.13Z"/>
      <path class="st7" d="M9.08,19.18c.14-1.84-1.51-3.31-4.01-3.52-.15-.01-.29-.02-.43-.03l1.88,8.24h.01c1.12-.37,2.29-1.41,2.53-4.69h0Z"/>
      <path class="st3" d="M16.88,46.36c-.02.21-.02.42-.02.63,2.54-.59,5.08-1.19,7.61-1.8-.73-.59-1.57-1.27-2.77-1.36-2.49-.2-4.61-.04-4.82,2.54h0Z"/>
      <path class="st11" d="M30.58,9.05c2.33.39,4.36.93,5.36-3.83-.15.03-.29.07-.43.1l-7.42,1.75c.5,1.03,1.31,1.79,2.49,1.99h0Z"/>
      <path class="st12" d="M42.23,31.56c-.21,2.58,1.54,4.46,4.01,4.86.34.06.68.12,1,.16h.04c-.07-.32-.15-.65-.22-.97l-1.72-7.37s-.04,0-.06,0c-1.22.13-2.94,1.66-3.07,3.31h.01Z"/>
      <path class="st14" d="M13.49,18.08c.15.69.32,1.42.84,1.89.68.6,1.7.54,2.6.47,1.19-.09,3,0,4.98.19-.7-1.74-2.23-5.42-3.92-8.96-.29-.62-.6-1.24-.9-1.84-.97.26-1.94.59-2.67,1.27-1.81,1.66-1.45,4.57-.94,6.98Z"/>
      <path class="st9" d="M11.3,40.54c1.66,1.81,4.57,1.45,6.98.94.69-.15,1.42-.32,1.89-.84.6-.68.54-1.7.47-2.6-.12-1.6.08-4.32.39-7.08-1.19-.18-1.94-.31-1.94-.31,0,0-4.51,1.79-9.07,3.92-.26.12-.51.24-.75.36.22.83.43,1.66.65,2.49.29,1.11.61,2.28,1.39,3.13h0Z"/>
    </g>
  </g>
</svg>