<svg width="123" height="33" viewBox="0 0 123 33" fill="none" xmlns="http://www.w3.org/2000/svg">
<g clip-path="url(#clip0_40_357)">
<path d="M3.44114 8.76763L2.2642 7.46964C0.820493 9.93336 0 12.7916 0 15.697H0.811526C0.81601 12.9799 1.76204 10.5073 3.44114 8.76763Z" fill="url(#paint0_linear_40_357)"/>
<path d="M3.23041 21.5166C1.75756 20.1222 0.811526 18.2324 0.811526 15.7104V15.697H0C0 18.6516 0.526819 21.3978 1.56925 23.792L3.23041 21.5144V21.5166Z" fill="url(#paint1_linear_40_357)"/>
<path d="M29.049 13.6009L27.5426 15.1567C29.6297 15.1859 30.912 16.7977 30.8671 18.8534H31.6787C31.6787 16.8246 30.7259 14.9796 29.049 13.6009Z" fill="url(#paint2_linear_40_357)"/>
<path d="M31.6787 18.8534H30.8671C30.829 20.5437 29.9233 21.965 27.9192 23.0209L30.0354 25.9352C31.0689 24.0274 31.6787 21.6893 31.6787 18.8556V18.8534Z" fill="url(#paint3_linear_40_357)"/>
<path d="M4.28629 13.3274C4.22801 13.639 4.19662 13.9618 4.19662 14.2981C4.19662 19.1426 7.80589 22.2363 12.3657 22.2363C21.0302 22.2363 23.6015 15.1567 27.482 15.1567C27.5022 15.1567 27.5224 15.1567 27.5426 15.1567L29.049 13.6009C27.1772 12.0608 24.3996 11.0946 21.0302 11.0946C14.1703 11.0946 10.5162 16.8246 7.40237 16.8246C6.04609 16.8246 5.01039 15.3361 5.01039 13.8946C5.01039 13.7444 5.01936 13.5987 5.03505 13.4574L4.28629 13.3297V13.3274Z" fill="url(#paint4_linear_40_357)"/>
<path d="M9.65761 6.22319C14.6658 6.22319 18.1405 10.0118 22.6106 10.0118C27.9685 10.0118 30.9366 7.40237 31.6809 2.30007L30.8694 2.16556C30.643 3.51736 29.7619 5.14041 28.1837 5.14041C26.6952 5.14041 25.1147 3.83121 22.8169 2.56909C20.5101 1.26212 17.8693 0 14.5738 0C9.27651 0 4.80414 3.12056 2.2642 7.46963L3.44114 8.76762C4.96107 7.19389 7.08404 6.22319 9.65761 6.22319Z" fill="url(#paint5_linear_40_357)"/>
<path d="M14.8922 25.0766C11.0139 25.0766 6.10886 24.2359 3.23041 21.5144L1.56925 23.7921C3.95899 29.2912 9.05681 32.9251 16.6968 32.9251C21.7453 32.9251 27.3341 30.9254 30.0354 25.933L27.9192 23.0186C25.4308 24.3278 21.2409 25.0766 14.8922 25.0766Z" fill="url(#paint6_linear_40_357)"/>
<path d="M44.9881 24.6417C39.971 24.6417 37.2002 21.3418 37.2002 16.4614C37.2002 11.5811 40.1974 8.24081 45.0778 8.24081C47.0282 8.24081 48.6557 8.6959 49.9133 9.40878L49.3888 12.823C48.1961 12.0653 46.7973 11.469 45.1742 11.469C42.446 11.469 41.1211 13.4843 41.1211 16.439C41.1211 19.3937 42.4908 21.501 45.219 21.501C46.0911 21.501 46.7098 21.3418 47.3487 20.9966V18.1809H44.5981L44.143 15.2711H50.7607V22.9671C49.1108 24.0432 47.1649 24.6395 44.9881 24.6395V24.6417Z" fill="white"/>
<path d="M58.273 24.5251C56.1433 24.5251 54.3588 24.0656 52.7514 23.3348L53.3231 19.99C54.9506 20.8598 56.7598 21.4561 58.3402 21.4561C59.4633 21.4561 60.2457 20.9764 60.2457 20.0348C60.2457 19.0933 59.7839 18.7301 57.5623 17.8805C54.4036 16.6677 53.0294 15.6365 53.0294 13.0248C53.0294 9.98268 55.4124 8.35291 58.4321 8.35291C60.4946 8.35291 61.8239 8.74298 63.1982 9.40879L62.6018 12.7087C61.1828 11.8837 59.6943 11.4264 58.4837 11.4264C57.2731 11.4264 56.7172 11.9286 56.7172 12.6594C56.7172 13.4642 57.1521 13.8542 59.1204 14.6097C62.5548 15.8696 63.9312 17.06 63.9312 19.5798C63.9312 23.0142 61.4092 24.5274 58.2707 24.5274L58.273 24.5251Z" fill="white"/>
<path d="M75.5907 24.5969C71.4636 24.5969 68.6905 21.4225 68.6905 16.7237C68.6905 12.0249 71.5107 8.80573 75.7028 8.80573C77.42 8.80573 78.8346 9.31461 79.9802 10.1037L79.7358 11.6506C78.5454 10.7897 77.2228 10.171 75.6759 10.171C72.3222 10.171 70.2508 12.8185 70.2508 16.6834C70.2508 20.5482 72.3446 23.2092 75.658 23.2092C77.29 23.2092 78.7651 22.5703 80.0003 21.622L80.2223 23.0792C79.0745 23.9378 77.3999 24.5991 75.5907 24.5991V24.5969Z" fill="white"/>
<path d="M89.2432 24.339L88.9899 22.8976C87.9856 23.8346 86.7257 24.5655 85.1721 24.5655C83.298 24.5655 81.9507 23.5387 81.9507 21.6153C81.9507 19.0753 84.0042 17.8872 88.9002 17.4097V16.7013C88.9002 15.2352 88.0304 14.6209 86.6584 14.6209C85.3784 14.6209 84.1207 15.0087 82.9303 15.5782L82.7263 14.2286C83.9862 13.6816 85.2192 13.2915 86.7503 13.2915C89.1513 13.2915 90.3865 14.4124 90.3865 16.6296V24.3368H89.2432V24.339ZM88.9002 18.5978C84.6498 19.0327 83.4572 20.0617 83.4572 21.5256C83.4572 22.6913 84.2575 23.2877 85.403 23.2877C86.5486 23.2877 87.8488 22.6465 88.9002 21.6624V18.5978Z" fill="white"/>
<path d="M93.4847 24.3391V8.35513L94.9732 8.08163V24.3391H93.4847Z" fill="white"/>
<path d="M101.515 24.5229C99.82 24.5229 98.6991 23.8571 98.6991 21.8664V14.8025H97.0334V13.5224H98.6991V9.77417L100.188 9.52533V13.5224H102.678L102.884 14.8025H100.188V21.6175C100.188 22.716 100.623 23.1957 101.784 23.1957C102.129 23.1957 102.539 23.1285 102.793 23.0792L103.019 24.3368C102.701 24.4287 102.151 24.5206 101.513 24.5206L101.515 24.5229Z" fill="white"/>
<path d="M113.111 19.0328H105.588C105.637 21.6848 106.873 23.2608 109.04 23.2608C110.482 23.2608 111.74 22.6219 112.858 21.6624L113.089 23.0343C112.011 23.949 110.619 24.5677 108.951 24.5677C106.11 24.5677 104.077 22.6465 104.077 18.9184C104.077 15.4437 106.09 13.2938 108.744 13.2938C111.695 13.2938 113.109 15.7172 113.109 18.7144V19.0328H113.111ZM108.744 14.5088C107.05 14.5088 105.951 15.7642 105.655 17.8446H111.553C111.392 15.9032 110.477 14.5088 108.742 14.5088H108.744Z" fill="white"/>
<path d="M121.509 24.4982L118.4 19.8801L115.474 24.339H113.851L117.626 18.7839L114.078 13.639L115.564 13.3409L118.425 17.6159L121.168 13.5224H122.792L119.225 18.7368L122.998 24.227L121.509 24.5005V24.4982Z" fill="white"/>
</g>
<defs>
<linearGradient id="paint0_linear_40_357" x1="5.03819" y1="8.82488" x2="0.234446" y2="13.6278" gradientUnits="userSpaceOnUse">
<stop stop-color="#FCB813"/>
<stop offset="1" stop-color="#C3BF30"/>
</linearGradient>
<linearGradient id="paint1_linear_40_357" x1="0.0989972" y1="17.1298" x2="4.21612" y2="21.2469" gradientUnits="userSpaceOnUse">
<stop stop-color="#C3BF30"/>
<stop offset="1" stop-color="#80C242"/>
</linearGradient>
<linearGradient id="paint2_linear_40_357" x1="29.3125" y1="14.0639" x2="32.8137" y2="17.5652" gradientUnits="userSpaceOnUse">
<stop stop-color="#6DCEF5"/>
<stop offset="1" stop-color="#00B9C5"/>
</linearGradient>
<linearGradient id="paint3_linear_40_357" x1="33.5173" y1="20.0279" x2="29.9786" y2="23.5658" gradientUnits="userSpaceOnUse">
<stop stop-color="#00B9C5"/>
<stop offset="1" stop-color="#00A89C"/>
</linearGradient>
<linearGradient id="paint4_linear_40_357" x1="7.05969" y1="16.2729" x2="28.5798" y2="16.2729" gradientUnits="userSpaceOnUse">
<stop stop-color="#0071BB"/>
<stop offset="1" stop-color="#6DCEF5"/>
</linearGradient>
<linearGradient id="paint5_linear_40_357" x1="3.39151" y1="4.62597" x2="32.7753" y2="4.62597" gradientUnits="userSpaceOnUse">
<stop stop-color="#FCB813"/>
<stop offset="0.59" stop-color="#F5841C"/>
<stop offset="1" stop-color="#F16522"/>
</linearGradient>
<linearGradient id="paint6_linear_40_357" x1="4.35328" y1="26.8174" x2="29.016" y2="26.8174" gradientUnits="userSpaceOnUse">
<stop stop-color="#80C242"/>
<stop offset="1" stop-color="#00A89C"/>
</linearGradient>
<clipPath id="clip0_40_357">
<rect width="123" height="32.9251" fill="white"/>
</clipPath>
</defs>
</svg>
