<svg width="123" height="33" viewBox="0 0 123 33" fill="none" xmlns="http://www.w3.org/2000/svg">
<g clip-path="url(#clip0_1_114)">
<path d="M3.44114 8.78758L2.2642 7.48663C0.820493 9.95596 0 12.8207 0 15.7327H0.811526C0.81601 13.0095 1.76204 10.5312 3.44114 8.78758Z" fill="white"/>
<path d="M3.23041 21.5656C1.75756 20.168 0.811526 18.2739 0.811526 15.7462V15.7327H0C0 18.6941 0.526819 21.4465 1.56925 23.8462L3.23041 21.5634V21.5656Z" fill="white"/>
<path d="M29.0491 13.6318L27.5426 15.1912C29.6297 15.2204 30.912 16.8359 30.8671 18.8963H31.6787C31.6787 16.8629 30.7259 15.0137 29.0491 13.6318Z" fill="white"/>
<path d="M31.6787 18.8963H30.8671C30.829 20.5905 29.9233 22.015 27.9192 23.0733L30.0354 25.9942C31.0689 24.0821 31.6787 21.7386 31.6787 18.8985V18.8963Z" fill="white"/>
<path d="M4.2863 13.3577C4.22801 13.6701 4.19662 13.9936 4.19662 14.3306C4.19662 19.1862 7.8059 22.2869 12.3657 22.2869C21.0302 22.2869 23.6015 15.1912 27.482 15.1912C27.5022 15.1912 27.5224 15.1912 27.5426 15.1912L29.0491 13.6319C27.1772 12.0882 24.3996 11.1198 21.0302 11.1198C14.1703 11.1198 10.5162 16.8629 7.40238 16.8629C6.0461 16.8629 5.01039 15.3709 5.01039 13.9262C5.01039 13.7757 5.01936 13.6296 5.03505 13.4881L4.2863 13.36V13.3577Z" fill="white"/>
<path d="M9.65761 6.23735C14.6658 6.23735 18.1405 10.0346 22.6106 10.0346C27.9685 10.0346 30.9366 7.41921 31.6809 2.3053L30.8694 2.17049C30.643 3.52536 29.7619 5.15211 28.1837 5.15211C26.6952 5.15211 25.1147 3.83993 22.8169 2.57493C20.5101 1.265 17.8693 0 14.5738 0C9.27651 0 4.80415 3.12766 2.26421 7.48662L3.44114 8.78757C4.96107 7.21025 7.08404 6.23735 9.65761 6.23735Z" fill="white"/>
<path d="M14.8922 25.1337C11.0139 25.1337 6.10886 24.2911 3.23041 21.5634L1.56924 23.8462C3.95899 29.3578 9.05681 33 16.6968 33C21.7453 33 27.3341 30.9958 30.0354 25.992L27.9192 23.071C25.4308 24.3832 21.2409 25.1337 14.8922 25.1337Z" fill="white"/>
<path d="M44.9881 24.6977C39.971 24.6977 37.2002 21.3903 37.2002 16.4988C37.2002 11.6074 40.1974 8.25952 45.0778 8.25952C47.0282 8.25952 48.6557 8.71564 49.9133 9.43015L49.3888 12.8522C48.1961 12.0927 46.7973 11.495 45.1742 11.495C42.446 11.495 41.1211 13.515 41.1211 16.4764C41.1211 19.4378 42.4908 21.5498 45.219 21.5498C46.0911 21.5498 46.7098 21.3903 47.3487 21.0443V18.2222H44.5981L44.143 15.3058H50.7607V23.0193C49.1108 24.0978 47.1649 24.6955 44.9881 24.6955V24.6977Z" fill="white"/>
<path d="M58.273 24.5809C56.1433 24.5809 54.3588 24.1203 52.7514 23.3878L53.3231 20.0354C54.9506 20.9072 56.7597 21.5049 58.3402 21.5049C59.4633 21.5049 60.2457 21.0241 60.2457 20.0804C60.2457 19.1367 59.7839 18.7727 57.5623 17.9211C54.4036 16.7056 53.0294 15.672 53.0294 13.0544C53.0294 10.0053 55.4124 8.37186 58.4321 8.37186C60.4946 8.37186 61.8239 8.76282 63.1982 9.43014L62.6018 12.7376C61.1828 11.9107 59.6942 11.4523 58.4837 11.4523C57.2731 11.4523 56.7172 11.9556 56.7172 12.6881C56.7172 13.4948 57.1521 13.8857 59.1203 14.6429C62.5548 15.9057 63.9312 17.0988 63.9312 19.6243C63.9312 23.0665 61.4092 24.5831 58.2707 24.5831L58.273 24.5809Z" fill="white"/>
<path d="M75.5907 24.6528C71.4636 24.6528 68.6905 21.4712 68.6905 16.7617C68.6905 12.0523 71.5107 8.82574 75.7028 8.82574C77.42 8.82574 78.8346 9.33579 79.9801 10.1267L79.7358 11.677C78.5454 10.8142 77.2228 10.1941 75.6759 10.1941C72.3222 10.1941 70.2508 12.8477 70.2508 16.7213C70.2508 20.5949 72.3446 23.262 75.658 23.262C77.29 23.262 78.7651 22.6216 80.0003 21.6712L80.2223 23.1317C79.0745 23.9922 77.3999 24.6551 75.5907 24.6551V24.6528Z" fill="white"/>
<path d="M89.2432 24.3944L88.9899 22.9497C87.9856 23.8889 86.7257 24.6214 85.1721 24.6214C83.298 24.6214 81.9507 23.5923 81.9507 21.6645C81.9507 19.1187 84.0042 17.9279 88.9002 17.4493V16.7393C88.9002 15.2698 88.0304 14.6542 86.6584 14.6542C85.3784 14.6542 84.1207 15.0429 82.9303 15.6136L82.7263 14.261C83.9862 13.7127 85.2192 13.3218 86.7503 13.3218C89.1513 13.3218 90.3865 14.4452 90.3865 16.6674V24.3922H89.2432V24.3944ZM88.9002 18.6402C84.6498 19.076 83.4572 20.1074 83.4572 21.5746C83.4572 22.743 84.2575 23.3406 85.403 23.3406C86.5486 23.3406 87.8488 22.698 88.9002 21.7116V18.6402Z" fill="white"/>
<path d="M93.4846 24.3944V8.37413L94.9732 8.10001V24.3944H93.4846Z" fill="white"/>
<path d="M101.515 24.5787C99.82 24.5787 98.6991 23.9113 98.6991 21.9161V14.8362H97.0334V13.5532H98.6991V9.7964L100.188 9.547V13.5532H102.678L102.884 14.8362H100.188V21.6667C100.188 22.7677 100.623 23.2485 101.784 23.2485C102.129 23.2485 102.539 23.1811 102.793 23.1317L103.019 24.3922C102.701 24.4843 102.151 24.5764 101.513 24.5764L101.515 24.5787Z" fill="white"/>
<path d="M113.111 19.076H105.588C105.637 21.7341 106.873 23.3137 109.04 23.3137C110.482 23.3137 111.74 22.6733 112.858 21.7116L113.089 23.0867C112.011 24.0034 110.619 24.6236 108.951 24.6236C106.11 24.6236 104.077 22.698 104.077 18.9614C104.077 15.4788 106.09 13.324 108.744 13.324C111.695 13.324 113.109 15.7529 113.109 18.757V19.076H113.111ZM108.744 14.5418C107.05 14.5418 105.951 15.8001 105.655 17.8852H111.553C111.392 15.9394 110.477 14.5418 108.742 14.5418H108.744Z" fill="white"/>
<path d="M121.509 24.5539L118.4 19.9253L115.474 24.3944H113.851L117.626 18.8266L114.078 13.67L115.564 13.3712L118.425 17.656L121.168 13.5532H122.791L119.225 18.7794L122.998 24.2821L121.509 24.5562V24.5539Z" fill="white"/>
</g>
<defs>
<clipPath id="clip0_1_114">
<rect width="123" height="33" fill="white"/>
</clipPath>
</defs>
</svg>
