<svg width="155" height="27" viewBox="0 0 155 27" fill="none" xmlns="http://www.w3.org/2000/svg">
<g clip-path="url(#clip0_1_141)">
<mask id="mask0_1_141" style="mask-type:luminance" maskUnits="userSpaceOnUse" x="0" y="0" width="155" height="27">
<path d="M155 0H0V27H155V0Z" fill="white"/>
</mask>
<g mask="url(#mask0_1_141)">
<path d="M132.687 21.9011V20.9168L135.261 18.4466C135.742 17.9958 135.985 17.5545 135.985 17.1195C135.985 16.8433 135.889 16.6147 135.698 16.4337C135.506 16.2527 135.255 16.1639 134.942 16.1639C134.358 16.1639 133.905 16.4941 133.583 17.1545L132.572 16.4845C132.674 16.275 132.792 16.0813 132.936 15.9035C133.076 15.7289 133.245 15.5638 133.44 15.4177C133.638 15.2685 133.867 15.1542 134.135 15.0716C134.403 14.9891 134.693 14.9478 135.006 14.9478C135.694 14.9478 136.246 15.1542 136.668 15.567C137.088 15.9797 137.299 16.4877 137.299 17.0877C137.299 17.4497 137.213 17.7958 137.037 18.126C136.862 18.453 136.575 18.8022 136.179 19.1737L134.47 20.7548H137.34V21.9011H132.687Z" fill="white"/>
<path d="M141.017 22.0533C140.504 22.0533 140.038 21.9009 139.627 21.5929C139.212 21.2881 138.89 20.8627 138.657 20.323C138.425 19.7832 138.31 19.1768 138.31 18.5037C138.31 17.8306 138.425 17.221 138.651 16.6781C138.878 16.1352 139.197 15.7098 139.601 15.405C140.007 15.097 140.463 14.9445 140.966 14.9445C141.471 14.9445 141.952 15.097 142.37 15.405C142.788 15.7098 143.11 16.1352 143.342 16.6749C143.572 17.2147 143.687 17.8211 143.678 18.4942C143.684 19.1673 143.572 19.7769 143.346 20.3198C143.119 20.8627 142.801 21.2881 142.395 21.5929C141.99 21.8978 141.531 22.0533 141.021 22.0533H141.017ZM140.998 20.8278C141.41 20.8278 141.741 20.6119 141.997 20.1833C142.252 19.7547 142.379 19.1959 142.379 18.5037C142.379 17.8116 142.249 17.2432 141.99 16.8115C141.732 16.3797 141.391 16.1637 140.966 16.1637C140.543 16.1637 140.236 16.3797 139.987 16.8115C139.739 17.2432 139.611 17.8052 139.611 18.491C139.611 19.1768 139.739 19.7483 139.994 20.1801C140.249 20.6119 140.584 20.8246 140.998 20.8246V20.8278Z" fill="white"/>
<path d="M144.485 21.9009V20.9167L147.058 18.4466C147.54 17.9957 147.782 17.5544 147.782 17.1194C147.782 16.8432 147.687 16.6146 147.495 16.4336C147.304 16.2527 147.052 16.1637 146.739 16.1637C146.156 16.1637 145.703 16.4939 145.381 17.1543L144.37 16.4844C144.472 16.2749 144.59 16.0812 144.733 15.9034C144.873 15.7288 145.042 15.5637 145.237 15.4176C145.432 15.2684 145.664 15.1541 145.932 15.0716C146.2 14.9891 146.49 14.9478 146.803 14.9478C147.489 14.9478 148.044 15.1541 148.465 15.5669C148.885 15.9796 149.096 16.4876 149.096 17.0877C149.096 17.4496 149.01 17.7957 148.834 18.1259C148.659 18.4529 148.373 18.8022 147.977 19.1736L146.267 20.7548H149.138V21.9009H144.485Z" fill="white"/>
<path d="M152.19 20.8278C152.576 20.8278 152.882 20.723 153.106 20.5167C153.329 20.3102 153.44 20.0404 153.44 19.7134C153.44 19.3864 153.332 19.1133 153.115 18.9006C152.898 18.6847 152.592 18.5799 152.2 18.5799C151.737 18.5799 151.3 18.7037 150.886 18.9545L150.292 18.5386L150.844 15.0938H154.355V16.2399H151.9L151.667 17.6242C151.887 17.5226 152.152 17.475 152.464 17.475C153.166 17.475 153.724 17.6846 154.135 18.1069C154.547 18.5291 154.754 19.072 154.754 19.7388C154.754 20.4055 154.525 20.9738 154.065 21.4056C153.606 21.8406 152.987 22.0565 152.212 22.0565C151.683 22.0565 151.223 21.9549 150.831 21.7485C150.439 21.5422 150.12 21.2596 149.878 20.8945L150.825 20.0499C151.188 20.5706 151.645 20.8342 152.19 20.8342V20.8278Z" fill="white"/>
<path d="M101.591 5.94668L101.201 6.41973C100.656 5.99748 100.044 5.78475 99.3612 5.78475C98.8826 5.78475 98.4428 5.90857 98.0412 6.15304C97.6358 6.39751 97.3166 6.73409 97.0841 7.15634C96.8479 7.57864 96.7298 8.03899 96.7298 8.53745C96.7298 9.0359 96.8479 9.4868 97.0841 9.90273C97.3203 10.3186 97.6488 10.6457 98.0633 10.8901C98.4779 11.1346 98.9374 11.2552 99.4411 11.2552C100.152 11.2552 100.746 11.0552 101.221 10.6552L101.597 11.0838C101.297 11.3473 100.969 11.5378 100.612 11.6585C100.254 11.7759 99.8495 11.8362 99.3901 11.8362C98.9306 11.8362 98.5031 11.7505 98.0984 11.5759C97.69 11.4013 97.3425 11.1663 97.0521 10.8742C96.7618 10.579 96.5324 10.2297 96.3602 9.82332C96.191 9.41691 96.1049 8.98829 96.1049 8.54064C96.1049 8.09293 96.191 7.65798 96.3633 7.24525C96.5355 6.83252 96.7649 6.48005 97.0583 6.18483C97.3486 5.88953 97.6967 5.65141 98.0984 5.47678C98.5 5.30215 98.9214 5.21326 99.3642 5.21326C99.8397 5.21326 100.254 5.27358 100.612 5.39423C100.969 5.51488 101.294 5.69903 101.594 5.94985L101.591 5.94668Z" fill="white"/>
<path d="M102.978 5.31485H106.933V5.87682H103.581V8.23584H106.71V8.79781H103.581V11.1663H106.994V11.7283H102.978V5.31485Z" fill="white"/>
<path d="M111.28 5.20691C111.723 5.20691 112.147 5.29581 112.549 5.47044C112.951 5.64506 113.299 5.88318 113.589 6.18164C113.879 6.48005 114.112 6.83252 114.284 7.24206C114.456 7.65167 114.543 8.08342 114.543 8.53745C114.543 8.99148 114.456 9.41059 114.284 9.82014C114.112 10.2297 113.883 10.579 113.589 10.8742C113.299 11.1695 112.951 11.4045 112.549 11.5759C112.147 11.7474 111.723 11.8362 111.28 11.8362C110.69 11.8362 110.148 11.6902 109.647 11.3949C109.146 11.0997 108.751 10.6996 108.461 10.1948C108.17 9.68998 108.023 9.13753 108.023 8.53745C108.023 8.08661 108.109 7.6548 108.282 7.24206C108.454 6.82933 108.684 6.47692 108.977 6.18164C109.268 5.88635 109.615 5.64823 110.017 5.47361C110.419 5.29899 110.84 5.21009 111.283 5.21009L111.28 5.20691ZM110.263 11.0425C110.585 11.1854 110.926 11.2584 111.283 11.2584C111.641 11.2584 111.981 11.1885 112.307 11.0425C112.632 10.8996 112.916 10.706 113.149 10.4615C113.385 10.217 113.57 9.92807 113.71 9.59156C113.851 9.25498 113.918 8.90576 113.918 8.53745C113.918 8.03899 113.8 7.57864 113.563 7.15634C113.328 6.7341 113.009 6.39752 112.604 6.15304C112.198 5.90858 111.755 5.78476 111.28 5.78476C110.923 5.78476 110.585 5.85778 110.259 6.00383C109.934 6.14985 109.653 6.34358 109.417 6.59118C109.182 6.83884 108.993 7.13094 108.853 7.47384C108.713 7.81354 108.646 8.16915 108.646 8.54064C108.646 8.91214 108.716 9.26136 108.853 9.59475C108.993 9.93126 109.178 10.2202 109.417 10.4647C109.653 10.7092 109.934 10.9028 110.259 11.0457L110.263 11.0425Z" fill="white"/>
<path d="M122.841 6.12765L122.411 6.53724C122.254 6.31817 122.022 6.13715 121.716 5.98795C121.409 5.83873 121.078 5.7657 120.723 5.7657C120.268 5.7657 119.897 5.86413 119.62 6.0578C119.343 6.25147 119.202 6.50864 119.202 6.82614C119.202 7.00078 119.244 7.15633 119.333 7.29287C119.419 7.4294 119.534 7.54366 119.681 7.63258C119.827 7.72149 119.993 7.80403 120.185 7.87705C120.376 7.95007 120.574 8.01991 120.784 8.08342C120.995 8.14693 121.202 8.21676 121.416 8.28665C121.626 8.35648 121.827 8.44221 122.015 8.54064C122.203 8.63906 122.372 8.75332 122.519 8.88035C122.666 9.00737 122.781 9.16612 122.867 9.35978C122.953 9.55344 122.997 9.77251 122.997 10.017C122.997 10.5694 122.794 11.0108 122.385 11.3442C121.977 11.6744 121.425 11.8394 120.727 11.8394C120.198 11.8394 119.732 11.7442 119.327 11.5537C118.925 11.3632 118.603 11.106 118.363 10.7853L118.801 10.3885C119.033 10.6742 119.314 10.8933 119.643 11.0457C119.971 11.1981 120.335 11.2743 120.73 11.2743C121.24 11.2743 121.639 11.1663 121.933 10.9473C122.222 10.7282 122.369 10.4393 122.369 10.0741C122.369 9.82651 122.299 9.61376 122.162 9.43599C122.022 9.25816 121.843 9.11531 121.62 9.0105C121.396 8.90575 121.151 8.81051 120.883 8.72479C120.615 8.63906 120.347 8.54696 120.079 8.45491C119.811 8.35968 119.566 8.25174 119.343 8.12791C119.119 8.00407 118.941 7.83262 118.801 7.61668C118.66 7.40081 118.593 7.14363 118.593 6.84835C118.593 6.35628 118.791 5.95938 119.186 5.66093C119.582 5.35931 120.105 5.21008 120.749 5.21008C121.208 5.21008 121.623 5.2958 122.003 5.47043C122.379 5.64505 122.663 5.86413 122.848 6.12765H122.841Z" fill="white"/>
<path d="M124.471 9.32486V5.31802H125.061V9.34069C125.061 9.91536 125.23 10.3821 125.565 10.7314C125.903 11.0838 126.343 11.2584 126.888 11.2584C127.434 11.2584 127.874 11.0838 128.209 10.7377C128.54 10.3885 128.71 9.92807 128.71 9.35027V5.31802H129.312V9.32486C129.312 10.0805 129.089 10.6869 128.646 11.1473C128.203 11.6076 127.613 11.8394 126.879 11.8394C126.145 11.8394 125.572 11.6076 125.131 11.1473C124.691 10.6869 124.471 10.0805 124.471 9.32486Z" fill="white"/>
<path d="M134.508 10.4266L131.899 6.30546V11.7251H131.297V5.31485H131.989L134.55 9.4169L137.104 5.31485H137.717V11.7251H137.114V6.30546L134.508 10.4266Z" fill="white"/>
<path d="M142.992 10.4266L140.383 6.30546V11.7251H139.78V5.31485H140.472L143.033 9.4169L145.588 5.31485H146.2V11.7251H145.597V6.30546L142.992 10.4266Z" fill="white"/>
<path d="M148.264 11.7251V5.31485H148.866V11.7251H148.264Z" fill="white"/>
<path d="M155 5.87682H152.84V11.7251H152.238V5.87682H150.091V5.31485H155V5.87682Z" fill="white"/>
<path d="M97.014 21.9009V15.0906H98.3469V17.8973H98.9976L100.927 15.0906H102.433L100.13 18.4371L102.595 21.9009H100.975L99.0518 19.1419H98.3469V21.9009H97.014Z" fill="white"/>
<path d="M106.043 14.9445C106.521 14.9445 106.981 15.0398 107.417 15.2271C107.855 15.4145 108.231 15.6685 108.547 15.986C108.862 16.3034 109.114 16.6813 109.303 17.1226C109.491 17.5607 109.583 18.0211 109.583 18.5037C109.583 18.9863 109.491 19.4435 109.303 19.8816C109.114 20.3198 108.862 20.6944 108.547 21.0119C108.231 21.3294 107.855 21.5803 107.417 21.7708C106.981 21.9581 106.521 22.0533 106.043 22.0533C105.565 22.0533 105.105 21.9581 104.669 21.7708C104.231 21.5834 103.855 21.3294 103.539 21.0119C103.224 20.6944 102.972 20.3198 102.787 19.8816C102.601 19.4435 102.509 18.9863 102.509 18.5037C102.509 17.8592 102.665 17.2654 102.981 16.7194C103.297 16.1733 103.725 15.7415 104.269 15.4208C104.812 15.1033 105.405 14.9445 106.043 14.9445ZM106.043 20.7262C106.63 20.7262 107.131 20.5103 107.545 20.0785C107.96 19.6467 108.167 19.1228 108.167 18.5069C108.167 17.8909 107.96 17.3671 107.545 16.9289C107.131 16.4939 106.63 16.2749 106.043 16.2749C105.456 16.2749 104.962 16.4939 104.547 16.9289C104.132 17.3639 103.929 17.8909 103.929 18.5069C103.929 19.1228 104.136 19.6435 104.551 20.0753C104.965 20.5103 105.463 20.7262 106.043 20.7262Z" fill="white"/>
<path d="M110.878 21.9009V15.0906H113.312C114.119 15.0906 114.766 15.2875 115.257 15.678C115.745 16.0717 115.99 16.5892 115.99 17.2369C115.99 17.6973 115.863 18.0973 115.611 18.4339C115.356 18.7736 115.002 19.0244 114.549 19.1927L116.137 21.9009H114.591L113.194 19.3959H112.214V21.9009H110.878ZM113.414 16.2654H112.211V18.2243H113.414C113.764 18.2243 114.045 18.1354 114.259 17.9544C114.472 17.7735 114.578 17.5353 114.578 17.2401C114.578 16.9448 114.472 16.7099 114.259 16.532C114.045 16.3543 113.764 16.2654 113.414 16.2654Z" fill="white"/>
<path d="M117.416 21.9009V15.0906H121.745V16.3352H118.753V17.8433H121.569V19.0943H118.753V20.6436H121.847V21.8978H117.416V21.9009Z" fill="white"/>
<path d="M127.906 21.9009L127.316 20.3706H124.321L123.722 21.9009H122.325L125.077 15.0906H126.634L129.389 21.9009H127.903H127.906ZM126.86 19.1927L125.814 16.4939L124.771 19.1927H126.86Z" fill="white"/>
<path d="M25.027 5.61972H17.9944V21.6439H21.9971V16.9163H25.0238C28.1525 16.9163 30.6881 14.389 30.6881 11.268C30.6881 8.14698 28.1525 5.61972 25.0238 5.61972H25.027ZM24.9089 13.3571H21.9971V9.34081H24.9089C25.8913 9.34081 26.6854 10.2393 26.6854 11.3474C26.6854 12.4554 25.8881 13.3539 24.9089 13.3539V13.3571Z" fill="white"/>
<path d="M6.2767 5.61972L0 21.6439H4.56717L5.53993 18.8625H11.4339L12.4066 21.6439H16.9738L10.6972 5.61972H6.2767ZM6.78377 15.3034L8.48693 10.433L10.19 15.3034H6.78377Z" fill="white"/>
<path d="M36.5565 15.3701H42.8395V11.8141H36.5565V9.34394H43.2286V5.61972H32.5539V21.6439H43.4424V17.9164H36.5565V15.3701Z" fill="white"/>
<path d="M56.6112 16.5893C55.7182 17.564 54.7359 18.1164 53.2496 18.1164C50.746 18.1164 48.9344 16.2083 48.9344 13.6302C48.9344 11.0521 50.746 9.14397 53.2496 9.14397C54.7391 9.14397 55.6449 9.63924 56.6048 10.6457L59.1468 7.71524C57.7849 6.11186 55.7087 5.24826 53.2496 5.24826C48.4751 5.24826 44.8329 8.8741 44.8329 13.627C44.8329 18.3799 48.4751 22.0058 53.2496 22.0058C55.7788 22.0058 57.6988 21.1581 59.1723 19.3896L56.6112 16.5861V16.5893Z" fill="white"/>
<path d="M75.2728 11.6172C75.3331 11.2362 75.3749 11.0171 75.3749 11.0171C75.3749 11.0171 74.3225 8.34699 73.1139 5.83239C72.3961 4.33381 71.6272 2.88919 70.9894 2.08592C69.9148 0.72703 70.2304 0.86673 68.5881 0.580983C68.2369 0.520658 64.6424 0.777833 64.6461 0.79688C65.1178 3.16541 65.6154 5.53077 66.1413 7.88977L67.1242 12.1696C67.4717 13.6365 67.8285 15.1002 68.1988 16.5606C68.422 17.4369 68.6582 18.3259 68.8876 19.199C69.0408 19.7769 69.2069 20.3833 69.6147 20.8246C70.4825 21.7645 71.9975 21.5771 73.2541 21.3136C73.6145 21.2374 73.9971 21.1485 74.2395 20.8754C74.5519 20.523 74.5199 19.9928 74.4849 19.5229C74.4086 18.491 74.5839 16.5733 74.8072 14.8239C74.9732 13.5253 75.1608 12.3125 75.2697 11.6204L75.2728 11.6172Z" fill="#66C76B"/>
<path d="M75.5434 15.9702C74.4431 15.8114 73.6711 15.6844 73.6711 15.6844C73.6711 15.6844 71.3178 16.6115 68.9381 17.7196C67.2737 18.4943 66.1573 19.25 65.2673 19.9484C63.9024 21.0216 64.0427 20.7041 63.7591 22.3424C63.6982 22.6916 63.8705 26.0285 63.8895 26.0253C66.9575 25.4157 69.4554 24.8696 72.5043 24.1711C73.831 23.8663 75.1547 23.552 76.4747 23.2345C77.738 22.9297 78.9977 22.6154 80.2574 22.2948C80.771 22.1645 81.2846 22.0344 81.7982 21.901C82.3782 21.7486 82.9877 21.5835 83.4306 21.1771C84.3747 20.3136 84.2794 19.0467 84.0143 17.7958C83.938 17.437 83.8488 17.056 83.5745 16.8147C83.2202 16.5036 82.6876 16.5353 82.2158 16.5703C81.4439 16.6274 80.1774 16.5385 78.8544 16.3988C77.6962 16.275 76.4974 16.113 75.5434 15.9765" fill="#866EBD"/>
<path d="M81.0742 20.3739C81.9132 22.1931 82.8924 24.1331 83.6705 25.111C84.7487 26.4698 84.4295 26.3302 86.0754 26.6127C86.426 26.6731 90.0205 26.4095 90.0175 26.3873C89.4719 23.6727 88.8882 20.9613 88.2725 18.2626L87.2552 13.9382C86.9175 12.5444 86.5693 11.1538 86.2126 9.76314C86.0625 9.17889 85.9124 8.59158 85.7593 8.00734C85.6067 7.42954 85.4407 6.82308 85.0323 6.38175C84.165 5.44198 82.6501 5.6293 81.3934 5.89282C81.033 5.96902 80.6504 6.05792 80.4075 6.33094C80.095 6.68342 80.127 7.2136 80.1621 7.68352C80.2199 8.44867 80.1301 9.69324 79.9929 11.0013C79.8717 12.1253 79.7155 13.2905 79.5783 14.2335C79.4129 15.3765 79.2757 16.1893 79.2757 16.1893C79.2757 16.1893 80.0729 18.1959 81.0742 20.3707V20.3739Z" fill="#EF3F52"/>
<path d="M73.235 4.72116C73.117 4.75291 72.9989 4.78149 72.8814 4.81006C72.3007 4.96246 71.6918 5.12756 71.2483 5.53395C70.3042 6.39757 70.4924 7.90564 70.7569 9.1566C70.8338 9.51539 70.923 9.8964 71.1973 10.1377C71.551 10.4488 72.0836 10.4171 72.556 10.3822C73.2289 10.3345 74.2715 10.3949 75.4007 10.5028C76.495 10.6107 77.6655 10.76 78.6637 10.8997C80.0507 11.0934 81.097 11.2648 81.097 11.2648C81.097 11.2648 82.8641 10.579 84.8859 9.67095C86.8283 8.801 89.0002 7.74057 90.0593 6.90873C91.4242 5.83875 91.2839 6.15309 91.5706 4.51796C91.6315 4.16872 91.3731 0.590516 91.3541 0.593691C88.3051 1.19694 85.2654 1.84146 82.2324 2.53042L78.08 3.50514C76.463 3.89567 74.8429 4.30524 73.2289 4.71799L73.235 4.72116Z" fill="#F9B12A"/>
<path d="M67.1334 12.1602C67.7172 11.9665 68.3261 11.4299 68.454 9.72494C68.5272 8.76927 67.6661 8.00412 66.3646 7.89938C66.2883 7.893 66.2151 7.88667 66.1413 7.88348C64.9518 7.79457 63.8034 8.23909 63.7019 9.50275C63.593 10.8426 64.2979 11.903 65.5865 12.1125C66.1481 12.2046 66.674 12.3126 67.1334 12.1634V12.1602Z" fill="#66C76B"/>
<path d="M76.4783 23.2313C76.0988 22.9234 75.6621 22.5741 75.0335 22.5233C73.7326 22.4186 72.6286 22.5011 72.5203 23.8441C72.5111 23.9521 72.5074 24.06 72.5074 24.1711C72.492 25.4157 72.9607 26.6826 74.1472 26.8762C75.4229 27.0858 76.5294 27.3874 77.0141 24.4918C77.0971 24.0061 76.8837 23.5615 76.4783 23.2345V23.2313Z" fill="#866EBD"/>
<path d="M78.3353 3.36866C78.5936 3.93698 79.0242 4.36561 79.6712 4.47038C80.8995 4.67358 81.971 4.9625 82.4877 2.39394C82.5067 2.29552 82.5258 2.1971 82.5449 2.08914C82.7042 1.143 81.9679 0.130187 80.6664 0.0222377C79.3649 -0.0857115 78.1661 0.0952621 78.0542 1.4351C78.0001 2.10185 78.08 2.80352 78.3353 3.36549V3.36866Z" fill="#F9B12A"/>
<path d="M87.345 14.4398C86.7102 14.5096 85.814 15.3033 85.7439 16.1574C85.6357 17.4973 86.5478 18.472 87.8358 18.6815C88.0148 18.7101 88.1901 18.7418 88.3592 18.7641C89.4086 18.9101 90.2857 18.7863 90.7033 16.2939C90.8626 15.3478 90.1134 14.4144 88.8119 14.3096C88.3371 14.2715 87.7085 14.3985 87.345 14.4366V14.4398Z" fill="#EF3F52"/>
<path d="M84.0149 17.7894C83.9387 17.4306 83.8495 17.0496 83.5751 16.8084C83.2209 16.4972 82.6882 16.529 82.2164 16.5639C81.5466 16.6115 80.5065 16.5512 79.3778 16.4432C79.6233 17.0496 80.2832 18.6562 81.0742 20.3707C81.3073 20.8787 81.5528 21.393 81.7982 21.8947C82.3788 21.7423 82.9877 21.5772 83.4281 21.1708C84.3723 20.3072 84.2763 19.0403 84.0119 17.7894H84.0149Z" fill="#7D3B52"/>
<path d="M85.0317 6.38488C84.1644 5.44512 82.6495 5.63244 81.3929 5.89597C81.0324 5.97216 80.6498 6.06107 80.4075 6.33414C80.095 6.68655 80.1264 7.21673 80.1615 7.68665C80.2193 8.4518 80.1301 9.69643 79.9929 11.0045C79.9892 11.0331 79.9862 11.0648 79.9831 11.0934C80.6658 11.195 81.1025 11.268 81.1025 11.268C81.1025 11.268 82.8697 10.5822 84.8914 9.67416C85.2746 9.50277 85.6633 9.32494 86.0527 9.14398C85.9537 8.76616 85.8577 8.38835 85.7593 8.01053C85.6061 7.43267 85.4401 6.82621 85.0317 6.38488Z" fill="#D2441F"/>
<path d="M68.4571 9.72809C68.5309 8.77247 67.6698 8.00727 66.3683 7.90252C66.292 7.89614 66.2182 7.88982 66.145 7.88663L67.1273 12.1665H67.1341C67.7172 11.9728 68.3267 11.4363 68.454 9.73128L68.4571 9.72809Z" fill="#40964C"/>
<path d="M72.5234 23.844C72.5142 23.952 72.5111 24.06 72.5111 24.1711C73.8378 23.8663 75.1578 23.5551 76.4814 23.2345C76.1019 22.9265 75.6652 22.5772 75.0366 22.5264C73.7357 22.4217 72.6323 22.5042 72.5234 23.8472V23.844Z" fill="#6A5596"/>
<path d="M79.67 4.47042C80.8854 4.67044 81.9446 4.95301 82.4674 2.47971C82.3905 2.49558 82.3142 2.51463 82.241 2.5305L78.3722 3.43854C78.6336 3.97194 79.0549 4.36882 79.6737 4.47042H79.67Z" fill="#DF7A10"/>
<path d="M85.7464 16.1575C85.6375 17.4973 86.5496 18.472 87.8382 18.6816C88.0172 18.7102 88.1925 18.7419 88.3617 18.7641C88.3709 18.7641 88.3777 18.7641 88.3838 18.7641C88.3457 18.5959 88.3075 18.4276 88.2688 18.2593L87.3696 14.4334C87.3696 14.4334 87.3505 14.4334 87.3406 14.4366C86.7065 14.5065 85.8097 15.3003 85.7396 16.1543L85.7464 16.1575Z" fill="#C72840"/>
<path d="M70.7594 9.1566C70.8362 9.51539 70.9254 9.8964 71.1998 10.1377C71.5534 10.4488 72.0861 10.4171 72.5585 10.3822C73.1803 10.3377 74.1245 10.3853 75.1578 10.4806C74.7906 9.57571 73.9934 7.66436 73.1133 5.82923C72.9601 5.50538 72.8008 5.18789 72.6446 4.87357C72.1402 5.01009 71.6334 5.18154 71.2508 5.53396C70.3067 6.39757 70.4949 7.90564 70.7594 9.1566Z" fill="#648249"/>
<path d="M69.6141 20.8215C70.482 21.7613 71.9969 21.574 73.2535 21.3105C73.6139 21.2343 73.9965 21.1454 74.2389 20.8723C74.5513 20.5199 74.5193 19.9897 74.4843 19.5198C74.424 18.688 74.5261 17.2751 74.6854 15.8432C74.0636 15.7479 73.6712 15.6844 73.6712 15.6844C73.6712 15.6844 71.3172 16.6115 68.9381 17.7196C68.804 17.7831 68.673 17.8434 68.5488 17.9069C68.6638 18.3387 68.7751 18.7705 68.8901 19.1991C69.0433 19.7769 69.2094 20.3834 69.6172 20.8247L69.6141 20.8215Z" fill="#475965"/>
</g>
</g>
<defs>
<clipPath id="clip0_1_141">
<rect width="155" height="27" fill="white"/>
</clipPath>
</defs>
</svg>
